<?xml version="1.0" standalone="no"?>
<!DOCTYPE svg PUBLIC "-//W3C//DTD SVG 20010904//EN"
 "http://www.w3.org/TR/2001/REC-SVG-20010904/DTD/svg10.dtd">
<svg version="1.0" xmlns="http://www.w3.org/2000/svg"
 width="700.000000pt" height="700.000000pt" viewBox="0 0 700.000000 700.000000"
 preserveAspectRatio="xMidYMid meet">
<metadata>
Created by potrace 1.11, written by Peter Selinger 2001-2013
</metadata>
<g transform="translate(0.000000,700.000000) scale(0.100000,-0.100000)"
fill="#000000" stroke="none">
<path d="M3387 6994 c-1 -1 -38 -5 -82 -8 -86 -7 -122 -11 -200 -27 -27 -5
-60 -11 -71 -13 -66 -13 -202 -54 -294 -89 -470 -180 -851 -506 -1113 -952 -9
-16 -39 -75 -66 -130 -206 -425 -265 -855 -186 -1364 3 -18 7 -36 9 -40 2 -3
-18 -6 -44 -7 -174 -4 -242 -221 -185 -591 9 -63 25 -122 46 -175 29 -75 113
-219 164 -281 48 -59 103 -160 155 -282 76 -177 128 -212 263 -178 32 8 59 13
61 11 3 -4 105 -335 111 -358 2 -8 4 -15 5 -15 1 0 3 -7 5 -15 8 -40 48 -131
77 -177 58 -90 314 -362 481 -509 53 -47 57 -54 58 -95 0 -24 2 -53 4 -63 11
-56 15 -304 6 -327 -13 -36 -34 -55 -226 -215 -66 -54 -121 -102 -123 -106 -2
-4 -10 -4 -17 -2 -17 7 -79 -16 -264 -95 -151 -64 -224 -90 -273 -96 -18 -3
-44 -7 -58 -10 -14 -3 -43 -7 -65 -11 -95 -13 -194 -28 -285 -44 -30 -5 -68
-12 -85 -14 -16 -3 -82 -17 -145 -31 -63 -14 -126 -28 -140 -31 -74 -16 -248
-81 -345 -129 -215 -106 -367 -251 -471 -452 l-36 -68 3418 -3 c1879 -1 3419
0 3422 3 7 6 -64 131 -115 203 -185 260 -451 415 -863 501 -88 18 -117 24
-207 36 -18 3 -49 7 -69 10 -19 3 -56 7 -82 10 -26 3 -58 8 -72 10 -14 3 -45
7 -70 10 -25 3 -70 9 -100 15 -30 5 -71 11 -91 14 -51 8 -71 16 -263 112 -111
55 -178 83 -192 80 -18 -5 -49 10 -80 39 -7 5 -22 19 -35 29 -32 25 -135 113
-178 151 -58 51 -71 67 -77 101 -10 53 10 385 25 410 3 6 42 41 86 79 102 87
355 343 405 409 51 68 94 157 120 247 54 187 116 389 122 394 2 2 24 -2 48 -9
50 -15 109 -12 143 5 42 23 72 70 135 212 47 107 81 167 137 242 82 109 177
291 194 370 11 51 15 72 30 185 9 66 7 225 -3 270 -33 150 -89 217 -189 225
-23 2 -46 4 -50 4 -4 1 -3 10 3 21 6 11 9 20 6 20 -2 0 0 17 5 38 24 104 34
493 16 622 -4 30 -9 66 -11 80 -15 109 -59 284 -102 404 -192 537 -587 977
-1097 1225 -120 59 -284 123 -345 136 -9 2 -55 13 -102 24 -131 32 -301 53
-453 55 -76 1 -139 1 -140 0z"/>
</g>
</svg>
